<?xml version="1.0" standalone="no"?>
<!DOCTYPE svg PUBLIC "-//W3C//DTD SVG 20010904//EN"
 "http://www.w3.org/TR/2001/REC-SVG-20010904/DTD/svg10.dtd">
<svg version="1.0" xmlns="http://www.w3.org/2000/svg"
 width="700.000000pt" height="700.000000pt" viewBox="0 0 700.000000 700.000000"
 preserveAspectRatio="xMidYMid meet">
<metadata>
Created by potrace 1.14, written by Peter Selinger 2001-2017
</metadata>
<g transform="translate(0.000000,700.000000) scale(0.100000,-0.100000)"
fill="#000000" stroke="none">
<path d="M2244 5261 c-2 -2 -4 -85 -4 -183 l0 -178 -405 0 c-379 0 -405 -1
-405 -17 -1 -10 -1 -170 -1 -355 l0 -338 -259 0 -260 0 0 -630 0 -630 665 0
665 0 -2 -252 -3 -253 -595 0 -595 0 0 -630 0 -629 1923 -1 c1915 0 1922 0
1923 20 0 11 1 252 2 535 l2 515 595 0 595 1 3 630 2 630 -662 0 -663 0 -3 72
-3 72 259 0 260 0 0 174 c-1 95 2 177 5 182 3 5 186 9 406 9 l401 -1 -2 630
-3 630 -1918 1 c-1055 0 -1921 -2 -1923 -4z"/>
</g>
</svg>
